HIERARCHY
ROOT Hips
{
	OFFSET 0.00000 0.00000 0.00000
	CHANNELS 6 Xposition Yposition Zposition Yrotation Zrotation Xrotation 
	JOINT Lumbar
	{
		OFFSET 0 0 0
		CHANNELS 3 Zrotation Xrotation Yrotation
		JOINT Neck
		{
			OFFSET 0.00 0.2701 0.00
			CHANNELS 3 Zrotation Xrotation Yrotation
			End Site
			{
				OFFSET 0.00 0.1379 0.00
			}
		}
		JOINT RightShoulder
		{
			OFFSET 0.0119 0.2289 0.1181
			CHANNELS 3 Zrotation Xrotation Yrotation
			JOINT RightElbow
			{
				OFFSET 0.00 -0.1475 0.00
				CHANNELS 2 Zrotation Yrotation
				JOINT RightWrist
				{
					OFFSET 0.00 -0.1605 0.00
					CHANNELS 2 Zrotation Xrotation
					End Site
					{
						OFFSET 0.0040 -0.1068 0.0006
					}
				}
			}
		}
		JOINT LeftShoulder
		{
			OFFSET 0.0119 0.2289 -0.1181
			CHANNELS 3 Zrotation Xrotation Yrotation
			JOINT LeftElbow
			{
				OFFSET 0.00 -0.1475 0.00
				CHANNELS 2 Zrotation Yrotation
				JOINT LeftWrist
				{
					OFFSET 0.00 -0.1605 0.00
					CHANNELS 2 Zrotation Xrotation
					End Site
					{
						OFFSET 0.0040 -0.1068 -0.0006
					}
				}
			}
		}
	}
	JOINT RightHip
	{
		OFFSET 0.0316 -0.0424 0.0458
		CHANNELS 3 Zrotation Xrotation Yrotation
		JOINT RightKnee
		{
			OFFSET 0.00 -0.2438 0.00
			CHANNELS 1 Zrotation
			JOINT RightAnkle
			{
				OFFSET 0.00 -0.2449 0.00
				CHANNELS 3 Zrotation Xrotation Yrotation
				End Site
				{
					OFFSET 0.1237 -0.0542 0.0051
				}
			}
		}
	}
	JOINT LeftHip
	{
		OFFSET 0.0316 -0.0424 -0.0458
		CHANNELS 3 Zrotation Xrotation Yrotation
		JOINT LeftKnee
		{
			OFFSET 0.00 -0.2438 0.00
			CHANNELS 1 Zrotation
			JOINT LeftAnkle
			{
				OFFSET 0.00 -0.2449 0.00
				CHANNELS 3 Zrotation Xrotation Yrotation
				End Site
				{
					OFFSET 0.1237 -0.0542 -0.0051
				}
			}
		}
	}
}
MOTION
Frames: 22
Frame Time: 0.02
0.0538 0.57899 0.13342 178.91735 0 7.26323 11.69879 2.94176 19.93003 -22.69849 -21.17073 -9.00245 -6.98632 -8.32384 53.51087 50.81666 143.68968 -71.56737 -13.8994 137.00642 66.15952 -47.02663 54.35509 -126.71344 46.81604 -2.58549 12.62446 -15.07186 11.73515 -36.44115 10.83977 -8.08696 -15.60712 -1.20721 -13.20567 -0.02745 -5.94918 5.46169 0.40593 -3.97596
0.05434 0.57903 0.13314 178.84269 0 7.27215 11.56737 2.90517 19.99675 -22.67171 -21.25879 -9.09189 -7.45935 -8.29771 53.04657 51.45465 143.81747 -70.30573 -13.77568 136.94754 66.2742 -47.00658 54.25633 -126.76718 46.7862 -2.59881 12.71173 -15.06955 11.7528 -36.45124 10.82366 -8.13753 -15.48309 -1.1545 -13.22408 -0.65866 -5.9566 5.44299 0.566 -3.28663
0.0549 0.57911 0.13283 178.76987 0 7.26724 11.41608 2.87735 20.0498 -22.64013 -21.33617 -9.16659 -8.21065 -8.36944 52.26904 52.59503 144.00879 -68.23231 -13.5596 136.83337 66.43626 -46.98187 54.18507 -126.80435 46.78851 -2.60632 12.78943 -15.06398 11.73283 -36.43417 10.7918 -8.19177 -15.32692 -1.10919 -13.27225 -2.17017 -5.95415 5.41011 0.71887 -1.71918
0.05545 0.57917 0.13254 178.6984 0 7.26769 11.27374 2.84515 20.10663 -22.61224 -21.41674 -9.24713 -8.80972 -8.39287 51.66053 53.46815 144.166 -66.5978 -13.39336 136.7448 66.57295 -46.95961 54.10228 -126.85314 46.7768 -2.6175 12.86956 -15.05861 11.72949 -36.42783 10.76658 -8.24222 -15.18776 -1.06004 -13.30179 -3.20249 -5.95662 5.38394 0.87188 -0.63069
0.05601 0.57923 0.13225 178.61779 0 7.27245 11.13125 2.81407 20.1747 -22.57777 -21.505 -9.33174 -9.51271 -8.42991 50.94553 54.49552 144.34388 -64.68346 -13.19562 136.65362 66.7258 -46.93606 54.01523 -126.88501 46.76205 -2.62454 12.95798 -15.05866 11.72906 -36.42868 10.74392 -8.3017 -15.03902 -1.01261 -13.35054 -4.51802 -5.95699 5.35679 1.04024 0.74416
0.05655 0.57931 0.13195 178.55655 0 7.26487 10.98438 2.78296 20.2159 -22.55587 -21.57443 -9.40416 -10.06768 -8.46303 50.37504 55.32572 144.49458 -63.15153 -13.04078 136.55508 66.85591 -46.91418 53.94378 -126.94735 46.76112 -2.63857 13.0269 -15.04685 11.71304 -36.40804 10.7121 -8.3433 -14.90212 -0.96353 -13.36788 -5.48176 -5.95946 5.3279 1.17548 1.76014
0.05706 0.57945 0.13162 178.54901 0 7.2257 10.83214 2.74952 20.18429 -22.57045 -21.59483 -9.44685 -10.14002 -8.45869 50.28737 55.47742 144.55173 -62.89488 -13.02856 136.4479 66.916 -46.89639 53.90703 -127.1069 46.79503 -2.67543 13.04294 -15.00048 11.6663 -36.33364 10.65814 -8.33363 -14.80931 -0.90731 -13.28341 -5.13797 -5.97069 5.30228 1.20362 1.45018
0.05756 0.57961 0.13128 178.56066 0 7.17472 10.67588 2.71589 20.12638 -22.59759 -21.59652 -9.47751 -10.05568 -8.44783 50.35386 55.41664 144.57996 -63.04548 -13.06216 136.33532 66.95094 -46.8807 53.88537 -127.29617 46.84106 -2.71915 13.03993 -14.9427 11.60472 -36.23872 10.59555 -8.30598 -14.72895 -0.84933 -13.16792 -4.43553 -5.98433 5.27468 1.20113 0.77455
0.05806 0.57975 0.13095 178.56325 0 7.12967 10.52041 2.68247 20.0815 -22.61888 -21.60647 -9.51358 -10.04725 -8.44204 50.34424 55.46186 144.62364 -62.9938 -13.07354 136.22684 66.99448 -46.86509 53.8578 -127.46587 46.8787 -2.75829 13.04645 -14.89188 11.54747 -36.1538 10.5373 -8.28724 -14.64035 -0.79272 -13.07213 -3.98535 -5.99657 5.24491 1.22387 0.35384
0.05855 0.57991 0.1306 178.56784 0 7.08169 10.36882 2.64871 20.03125 -22.64137 -21.61705 -9.54999 -10.02779 -8.43075 50.34917 55.48498 144.66016 -62.98575 -13.08769 136.11068 67.05118 -46.84497 53.82696 -127.66019 46.92957 -2.80329 13.0488 -14.83363 11.49812 -36.065 10.47676 -8.26564 -14.56099 -0.73402 -12.95407 -3.19846 -6.00974 5.22722 1.19978 -0.40197
0.05906 0.58005 0.13029 178.57219 0 7.03727 10.20817 2.61565 19.98656 -22.66341 -21.62205 -9.58225 -9.99151 -8.42807 50.36471 55.49668 144.70342 -62.99524 -13.10804 136.00846 67.0744 -46.83477 53.80641 -127.811 46.95542 -2.83793 13.05565 -14.78796 11.4305 -35.97989 10.41912 -8.24552 -14.46646 -0.6791 -12.87416 -3.00363 -6.0217 5.18457 1.26466 -0.57006
0.0596 0.58017 0.13008 178.57615 0 7.00477 10.02571 2.58336 19.96027 -22.68874 -21.61603 -9.61238 -9.93744 -8.45025 50.37181 55.52941 144.77574 -62.94913 -13.13556 135.9586 67.00643 -46.85189 53.80768 -127.83174 46.90829 -2.84143 13.07785 -14.78164 11.30588 -35.90888 10.37199 -8.23521 -14.3208 -0.6356 -12.91113 -4.63642 -6.02944 5.06955 1.59351 1.07394
0.06014 0.58027 0.12992 178.5781 0 6.97648 9.83383 2.55199 19.94146 -22.71113 -21.60527 -9.6374 -9.87254 -8.48056 50.38642 55.55439 144.85464 -62.91304 -13.16798 135.92063 66.90624 -46.87888 53.81864 -127.80922 46.83548 -2.8347 13.10569 -14.78808 11.16548 -35.84269 10.3281 -8.22676 -14.16057 -0.59582 -12.98662 -6.85206 -6.03599 4.93043 2.01032 3.2978
0.06068 0.58037 0.12974 178.57789 0 6.94684 9.64507 2.52094 19.92117 -22.73069 -21.59661 -9.66098 -9.81719 -8.50743 50.39845 55.58127 144.92831 -62.87733 -13.19774 135.86959 66.82386 -46.90109 53.82761 -127.80714 46.77497 -2.83296 13.13202 -14.78743 11.03922 -35.77511 10.28255 -8.21656 -14.01146 -0.55395 -13.04178 -8.7295 -6.0433 4.80478 2.38059 5.18811
0.06122 0.58048 0.12954 178.59197 0 6.91438 9.46158 2.48672 19.89071 -22.77094 -21.58684 -9.70102 -9.73587 -8.53453 50.40978 55.61192 145.01153 -62.82808 -13.23075 135.85173 66.72755 -46.92458 53.82915 -127.7989 46.71262 -2.82904 13.15287 -14.79167 10.88306 -35.70324 10.23743 -8.20952 -13.84453 -0.51376 -13.10798 -10.91043 -6.04972 4.6678 2.78009 7.36721
0.06176 0.58057 0.12939 178.57476 0 6.88898 9.26429 2.45939 19.88501 -22.7639 -21.57938 -9.70444 -9.70951 -8.56133 50.42537 55.63055 145.07547 -62.81224 -13.2577 135.76637 66.65256 -46.94774 53.84549 -127.7977 46.64737 -2.82838 13.18717 -14.78908 10.78555 -35.64196 10.19236 -8.19663 -13.71016 -0.4709 -13.16049 -12.59481 -6.05776 4.54949 3.13676 9.08046
0.06227 0.58063 0.12934 178.47864 0 6.88171 9.03681 2.45029 19.9327 -22.65501 -21.57228 -9.61857 -9.82718 -8.60131 50.42307 55.66409 145.09623 -62.8115 -13.26532 135.50334 66.64794 -46.96731 53.92281 -127.78467 46.58373 -2.82889 13.25335 -14.76293 10.8544 -35.60665 10.14617 -8.16679 -13.67733 -0.4205 -13.16827 -12.83208 -6.06964 4.48186 3.38241 9.42586
0.06278 0.58067 0.12934 178.3499 0 6.88151 8.79479 2.44815 20.00709 -22.49308 -21.56918 -9.49382 -10.00433 -8.63818 50.42794 55.68024 145.09567 -62.8524 -13.26658 135.17029 66.66568 -46.98609 54.00956 -127.78788 46.51691 -2.83507 13.33356 -14.72983 10.98265 -35.58224 10.10006 -8.13113 -13.67624 -0.36722 -13.16073 -12.54103 -6.08324 4.43493 3.57733 9.27494
0.0633 0.58072 0.12932 178.23113 0 6.87838 8.55572 2.44326 20.07872 -22.33735 -21.56896 -9.38032 -10.1604 -8.66548 50.4487 55.67245 145.09687 -62.92583 -13.27163 134.8611 66.6705 -47.00562 54.07825 -127.81092 46.44987 -2.84523 13.41014 -14.70099 11.08359 -35.5544 10.05426 -8.09848 -13.65521 -0.31465 -13.15861 -12.44702 -6.09678 4.38321 3.77593 9.31081
0.06381 0.58078 0.12929 178.13195 0 6.87427 8.33158 2.43686 20.11333 -22.25818 -21.54842 -9.29486 -10.2863 -8.73766 50.39435 55.79025 145.13025 -62.79749 -13.27363 134.58401 66.68439 -47.02452 54.20894 -127.71753 46.39087 -2.82683 13.47585 -14.66789 11.1859 -35.52063 10.00707 -8.06444 -13.65682 -0.2644 -13.16396 -12.54566 -6.10771 4.31196 4.05675 9.52195
0.06432 0.58081 0.1293 177.98529 0 6.8737 8.07325 2.43498 20.22841 -22.00563 -21.57161 -9.14042 -10.49504 -8.71775 50.49127 55.65305 145.09333 -63.08049 -13.27971 134.22569 66.68691 -47.04358 54.20823 -127.87116 46.3123 -2.87008 13.56681 -14.64191 11.2989 -35.50131 9.9628 -8.03178 -13.61919 -0.20902 -13.15006 -12.12162 -6.1239 4.28562 4.15644 9.25318
0.06486 0.58081 0.12943 177.70687 0 6.88221 7.72209 2.44617 20.58365 -21.29854 -21.7113 -8.81699 -10.86857 -8.425 51.06312 54.72353 144.85126 -64.65174 -13.30484 133.63996 66.63807 -47.07025 53.87894 -128.70285 46.20033 -3.0768 13.72968 -14.63645 11.43378 -35.52291 9.92614 -8.0053 -13.46424 -0.13629 -13.08298 -10.28337 -6.15931 4.38672 3.73985 7.68962
